<svg version="1" xmlns="http://www.w3.org/2000/svg" width="533.333" height="533.333" viewBox="0 0 400.000000 400.000000"><path d="M0 200v200h400V0H0v200zM223.3 83.5c18.3 2.4 33.5 6.9 50.6 14.8l5.4 2.6 5.1-3.9c10.7-7.9 12.5-8.5 28.1-8.5 13.3 0 14.3.1 19.1 2.7 7.1 3.8 15.4 11.6 18.9 18 2.9 5.1 3 5.8 3 17.8 0 14.6-.9 17-10.1 26.9l-5.6 6.1 2.5 6.2c4.5 11.6 5.2 16.2 5.2 35.8 0 20.7-.7 24.6-6.5 38.2-14.5 33.8-44.7 59.8-85.2 73.3-19.1 6.3-26.8 7.6-52.4 8.2-25.6.6-33 0-51.1-4.7-44.8-11.6-78.5-37.2-95.3-72.5-7.7-16-8.4-19.9-8.4-42.5s.7-26.4 8.5-42.9l4.9-10.3-3.4-5.7c-5-8.3-5.9-11.9-5.4-23.5.3-9 .7-10.7 3.2-15.1 4.1-6.9 13-15.3 19.6-18.4 5-2.4 6.6-2.6 18.5-2.6 14.6 0 18.8 1.3 27.1 8 2.3 1.9 4.6 3.5 5.1 3.5s4.2-1.3 8.4-2.9c9.1-3.5 25.9-7.8 35.4-9 11.7-1.4 42.4-1.2 54.8.4z"/><path d="M172 97.5c-54.6 8.6-96.8 41-109.2 84-3.3 11.5-3.3 32.5 0 44 11.7 40.6 49.6 71.6 101 82.5 18.5 4 46.9 3.7 68-.6 49.3-10 88.6-42.4 99.4-81.9 3.2-11.9 3.2-32.9 0-44-12.1-41.6-51.8-73.4-104-83.1-12.4-2.3-43-2.8-55.2-.9zM153.3 149c6 2.3 10.9 6.8 13.1 12.2 2.4 5.6 2.2 25.4-.3 33.3-4.1 12.8-9.4 22.4-17.8 31.9-2.4 2.6-4.3 5.2-4.3 5.7 0 .6-1.9 1.9-4.2 3-2.4 1.1-5.6 2.7-7.3 3.7-3.9 2.1-16.5 2.9-20.8 1.1-10.2-4.1-12.5-7.3-15.3-20.9-1.4-6.3-1.4-8.8-.4-15.6 1.9-12.9 4.5-21.1 8.6-27.2 5.2-7.6 13.3-17.5 15.3-18.6.9-.5 2.5-1.7 3.7-2.8 3-2.7 16.2-7.7 20.6-7.7 2.1-.1 6.1.8 9.1 1.9zm104.4.8c7.3 2.6 15.6 7.8 17.7 11.1.5.8 2.6 3.3 4.6 5.5 6.2 7 8.3 10.8 12.5 22.6 3.7 10.6 5 20.8 3.5 28.2-1.2 6.2-5.8 16.8-8.6 19.9-2.3 2.6-8.5 3.9-18.2 3.9-9 0-9.1 0-13.9-3.8-11.9-9.5-24-25.3-27.4-36-.6-2-1.5-4.5-2-5.4-1.7-3.4-2.8-19.9-1.9-27.5 1.3-10.3 5.5-15.7 14.6-19.3 6.7-2.6 9.9-2.5 19.1.8zm-39.6 62c3.6 4 3.7 7.6.5 14.1-5.9 11.6-11.7 15.1-25 15.1-9.9 0-14.5-1.7-19-7.1-3.8-4.5-7.6-12.3-7.6-15.7 0-3.3 3.2-7.9 6.4-9.2 1.1-.5 11-.8 21.9-.7l19.9.2 2.9 3.3z"/><path d="M125.1 187.7c-3 3.7-3.5 6.6-1.7 10.1s6.6 7.2 9.3 7.2c1 0 3.3-1.5 5.1-3.4 3.5-3.7 4.3-8.7 2.1-12.9-1.7-3.2-2.8-3.7-8.1-3.7-3.9 0-5 .5-6.7 2.7zM251.8 189.4c-1.9 4-2 5-.9 8.5.9 3.1 2 4.4 4.8 5.7 3.4 1.7 3.7 1.7 7.1-.2 4.4-2.3 7.6-7.5 6.8-10.8-.3-1.2-1.5-3.5-2.7-4.9-1.8-2.3-2.8-2.7-7.5-2.7H254l-2.2 4.4z"/></svg>