<svg version="1" xmlns="http://www.w3.org/2000/svg" width="1200" height="1200" viewBox="0 0 900.000000 900.000000"><path d="M0 450v450h900V0H0v450zm217-143.8c1.9.8 4.3 2.4 5.2 3.4 2.2 2.5 81.2 158.3 87.8 173.2 2.9 6.4 5.3 11.8 5.4 11.9.1.2 1.7-3.4 3.5-8 4.2-10.3 85.5-171 88.9-175.6 4.5-6.1 6.4-6.4 40.5-6.9l30.7-.4V596h-59l.2-96.4c.2-53 .2-96.3 0-96.1-.1.1-17.8 34.2-39.1 75.6-28.5 55.3-39.9 76.5-42.8 79.5-5.4 5.6-11.1 7.4-23.8 7.4-8.8 0-10.8-.3-15.1-2.5-2.8-1.4-6.2-3.7-7.7-5.3-1.4-1.5-20.1-36.6-41.5-78s-39.1-75.5-39.3-75.7c-.2-.2-.3 42.8-.1 95.6l.3 95.9H152V303.8l30.8.4c24.6.4 31.4.8 34.2 2zm447.5 1.1c37.5 7.7 60.8 23.6 73.6 50.2 6.6 13.6 8.3 22.3 8.3 42.5.1 18.8-1 25.5-6 38.7-9.2 24.6-28.5 42.3-57 52.1-15.3 5.3-43.5 8.4-72.7 8.1l-15.2-.1-.5 48.4-.5 48.3h-67l-.3-145.3-.2-145.3 64.7.4c55.1.3 66 .6 72.8 2z"/><path d="M595.5 356.1c-.3.8-.4 21.6-.3 46.4l.3 45 21.5-.1c30.5-.1 38.9-2 48.8-10.9 5.8-5.2 10.5-13.7 12.2-22.2 1.9-8.7.8-26.6-1.9-33.5-4.3-11.2-16-20.4-29.6-23.5-3.5-.8-15.1-1.6-28.2-2-18.5-.5-22.3-.3-22.8.8z"/></svg>