<?xml version="1.0" standalone="no"?>
<!DOCTYPE svg PUBLIC "-//W3C//DTD SVG 20010904//EN"
 "http://www.w3.org/TR/2001/REC-SVG-20010904/DTD/svg10.dtd">
<svg version="1.0" xmlns="http://www.w3.org/2000/svg"
 width="512.000000pt" height="512.000000pt" viewBox="0 0 512.000000 512.000000"
 preserveAspectRatio="xMidYMid meet">
<metadata>
Created by potrace 1.11, written by Peter Selinger 2001-2013
</metadata>
<g transform="translate(0.000000,512.000000) scale(0.100000,-0.100000)"
fill="#000000" stroke="none">
<path d="M0 2560 l0 -2560 2560 0 2560 0 0 2560 0 2560 -2560 0 -2560 0 0
-2560z m1234 816 c30 -13 52 -51 277 -497 135 -266 253 -502 263 -525 l17 -40
263 520 c239 473 266 523 297 539 29 15 58 17 204 15 l170 -3 3 -827 2 -828
-170 0 -170 0 -2 543 -3 542 -219 -425 c-120 -234 -226 -433 -235 -444 -42
-49 -177 -63 -239 -26 -41 25 -31 7 -277 483 l-210 406 -3 -539 -2 -540 -170
0 -170 0 0 830 0 830 170 0 c123 0 180 -4 204 -14z m2581 -10 c275 -64 435
-256 435 -521 0 -148 -46 -279 -127 -366 -132 -143 -312 -199 -634 -199 l-109
0 0 -275 0 -275 -190 0 -190 0 0 831 0 831 373 -5 c298 -3 386 -7 442 -21z"/>
<path d="M3385 3089 c-3 -8 -4 -127 -3 -264 l3 -250 80 -3 c127 -5 242 13 295
46 68 42 101 113 101 220 0 128 -40 193 -147 238 -55 23 -321 34 -329 13z"/>
</g>
</svg>
