<svg xmlns="http://www.w3.org/2000/svg" xmlns:xlink="http://www.w3.org/1999/xlink" width="540" zoomAndPan="magnify" viewBox="0 0 404.88 209.999996" height="280" preserveAspectRatio="xMidYMid meet" version="1.0"><defs><clipPath id="id1"><path d="M 0 0.03125 L 404.761719 0.03125 L 404.761719 209.96875 L 0 209.96875 Z M 0 0.03125 " clip-rule="nonzero"/></clipPath><clipPath id="id2"><path d="M 35 13 L 66 13 L 66 42 L 35 42 Z M 35 13 " clip-rule="nonzero"/></clipPath><clipPath id="id3"><path d="M 30.726562 24.539062 L 55.980469 3.3125 L 74.796875 25.695312 L 49.542969 46.921875 Z M 30.726562 24.539062 " clip-rule="nonzero"/></clipPath><clipPath id="id4"><path d="M 30.726562 24.539062 L 55.980469 3.3125 L 74.796875 25.695312 L 49.542969 46.921875 Z M 30.726562 24.539062 " clip-rule="nonzero"/></clipPath><clipPath id="id5"><path d="M 338 169 L 368 169 L 368 199 L 338 199 Z M 338 169 " clip-rule="nonzero"/></clipPath><clipPath id="id6"><path d="M 335.535156 185.519531 L 354.09375 166.964844 L 370.527344 183.398438 L 351.972656 201.957031 Z M 335.535156 185.519531 " clip-rule="nonzero"/></clipPath><clipPath id="id7"><path d="M 335.535156 185.519531 L 354.09375 166.964844 L 370.527344 183.398438 L 351.972656 201.957031 Z M 335.535156 185.519531 " clip-rule="nonzero"/></clipPath><clipPath id="id8"><path d="M 41 114 L 66 114 L 66 149 L 41 149 Z M 41 114 " clip-rule="nonzero"/></clipPath><clipPath id="id9"><path d="M 38.757812 119.75 L 53.6875 112.734375 L 67.714844 142.59375 L 52.785156 149.609375 Z M 38.757812 119.75 " clip-rule="nonzero"/></clipPath><clipPath id="id10"><path d="M 38.757812 119.75 L 53.6875 112.734375 L 67.714844 142.59375 L 52.785156 149.609375 Z M 38.757812 119.75 " clip-rule="nonzero"/></clipPath><clipPath id="id11"><path d="M 138 66 L 169 66 L 169 95 L 138 95 Z M 138 66 " clip-rule="nonzero"/></clipPath><clipPath id="id12"><path d="M 132.628906 72.941406 L 157.777344 59.546875 L 171.171875 84.695312 L 146.023438 98.085938 Z M 132.628906 72.941406 " clip-rule="nonzero"/></clipPath><clipPath id="id13"><path d="M 132.628906 72.941406 L 157.777344 59.546875 L 171.171875 84.695312 L 146.023438 98.085938 Z M 132.628906 72.941406 " clip-rule="nonzero"/></clipPath><clipPath id="id14"><path d="M 240 13 L 266 13 L 266 42 L 240 42 Z M 240 13 " clip-rule="nonzero"/></clipPath><clipPath id="id15"><path d="M 233.144531 18.652344 L 256.335938 8.070312 L 268.476562 34.671875 L 245.28125 45.253906 Z M 233.144531 18.652344 " clip-rule="nonzero"/></clipPath><clipPath id="id16"><path d="M 233.144531 18.652344 L 256.335938 8.070312 L 268.476562 34.671875 L 245.28125 45.253906 Z M 233.144531 18.652344 " clip-rule="nonzero"/></clipPath><clipPath id="id17"><path d="M 139 169 L 167 169 L 167 198 L 139 198 Z M 139 169 " clip-rule="nonzero"/></clipPath><clipPath id="id18"><path d="M 132.683594 175.394531 L 157.957031 163.960938 L 169.390625 189.238281 L 144.117188 200.671875 Z M 132.683594 175.394531 " clip-rule="nonzero"/></clipPath><clipPath id="id19"><path d="M 132.683594 175.394531 L 157.957031 163.960938 L 169.390625 189.238281 L 144.117188 200.671875 Z M 132.683594 175.394531 " clip-rule="nonzero"/></clipPath><clipPath id="id20"><path d="M 237 113 L 272 113 L 272 149 L 237 149 Z M 237 113 " clip-rule="nonzero"/></clipPath><clipPath id="id21"><path d="M 235.738281 125.34375 L 258.984375 113.171875 L 272.203125 138.410156 L 248.953125 150.585938 Z M 235.738281 125.34375 " clip-rule="nonzero"/></clipPath><clipPath id="id22"><path d="M 235.738281 125.34375 L 258.984375 113.171875 L 272.203125 138.410156 L 248.953125 150.585938 Z M 235.738281 125.34375 " clip-rule="nonzero"/></clipPath><clipPath id="id23"><path d="M 339 64 L 365 64 L 365 93 L 339 93 Z M 339 64 " clip-rule="nonzero"/></clipPath><clipPath id="id24"><path d="M 338.207031 71.46875 L 358.035156 62.539062 L 368.191406 85.101562 L 348.363281 94.027344 Z M 338.207031 71.46875 " clip-rule="nonzero"/></clipPath><clipPath id="id25"><path d="M 338.207031 71.46875 L 358.035156 62.539062 L 368.191406 85.101562 L 348.363281 94.027344 Z M 338.207031 71.46875 " clip-rule="nonzero"/></clipPath></defs><g clip-path="url(#id1)"><path fill="#6B727F" d="M 0 0.03125 L 404.878906 0.03125 L 404.878906 217.464844 L 0 217.464844 Z M 0 0.03125 " fill-opacity="1" fill-rule="nonzero"/><path fill="#6b727f" d="M 0 0.03125 L 404.878906 0.03125 L 404.878906 209.96875 L 0 209.96875 Z M 0 0.03125 " fill-opacity="1" fill-rule="nonzero"/><path fill="#6B727F" d="M 0 0.03125 L 404.878906 0.03125 L 404.878906 209.96875 L 0 209.96875 Z M 0 0.03125 " fill-opacity="1" fill-rule="nonzero"/><path fill="#6b727f" d="M 0 0.03125 L 404.878906 0.03125 L 404.878906 209.96875 L 0 209.96875 Z M 0 0.03125 " fill-opacity="1" fill-rule="nonzero"/></g><g clip-path="url(#id2)"><g clip-path="url(#id3)"><g clip-path="url(#id4)"><path fill="#545a67" d="M 58.828125 15.246094 L 53.816406 19.457031 L 42.449219 15.289062 C 42.117188 15.164062 41.816406 15.21875 41.542969 15.445312 L 37.671875 18.703125 C 37.207031 19.09375 37.242188 19.820312 37.746094 20.160156 L 46.203125 25.855469 L 43.398438 28.214844 L 39.386719 27.289062 C 39.105469 27.222656 38.808594 27.296875 38.589844 27.480469 L 36.136719 29.542969 C 35.679688 29.925781 35.703125 30.636719 36.1875 30.984375 L 41.539062 34.550781 L 44.132812 40.4375 C 44.394531 40.972656 45.085938 41.117188 45.542969 40.734375 L 47.996094 38.671875 C 48.21875 38.488281 48.339844 38.207031 48.324219 37.921875 L 48.101562 33.8125 L 50.90625 31.453125 L 55.0625 40.761719 C 55.3125 41.316406 56.019531 41.476562 56.488281 41.085938 L 60.359375 37.832031 C 60.613281 37.621094 60.730469 37.289062 60.671875 36.964844 L 58.519531 25.050781 L 63.53125 20.839844 C 65.082031 19.539062 66.6875 16.050781 65.386719 14.503906 C 64.085938 12.960938 60.375 13.941406 58.828125 15.246094 Z M 62.355469 19.441406 L 56.53125 24.335938 L 58.777344 36.773438 L 56.242188 38.90625 L 51.589844 28.492188 L 46.222656 33 L 46.472656 37.566406 L 45.304688 38.550781 L 43 33.324219 L 38.246094 30.15625 L 39.414062 29.175781 L 43.871094 30.203125 L 49.238281 25.691406 L 39.777344 19.320312 L 42.3125 17.1875 L 54.179688 21.539062 L 60.003906 16.644531 C 61.152344 15.675781 63.546875 15.289062 63.980469 15.679688 C 64.300781 16.183594 63.503906 18.476562 62.355469 19.441406 Z M 62.355469 19.441406 " fill-opacity="1" fill-rule="nonzero"/></g></g></g><g clip-path="url(#id5)"><g clip-path="url(#id6)"><g clip-path="url(#id7)"><path fill="#545a67" d="M 354.332031 176.996094 L 345.570312 185.757812 C 345.144531 186.183594 345.144531 186.875 345.566406 187.300781 L 350.191406 191.921875 C 350.617188 192.347656 351.308594 192.347656 351.734375 191.921875 L 360.492188 183.160156 C 360.921875 182.734375 360.921875 182.042969 360.496094 181.617188 L 355.875 176.996094 C 355.449219 176.570312 354.757812 176.570312 354.332031 176.996094 Z M 359.210938 182.390625 L 350.964844 190.636719 L 346.855469 186.527344 L 355.101562 178.28125 Z M 360.25 175.1875 L 361.28125 174.15625 L 357.683594 170.5625 C 356.835938 169.710938 355.453125 169.710938 354.597656 170.566406 L 339.140625 186.027344 C 338.285156 186.878906 338.285156 188.261719 339.132812 189.113281 L 342.730469 192.707031 L 343.761719 191.675781 C 344.328125 191.109375 345.25 191.105469 345.816406 191.671875 C 346.386719 192.242188 346.382812 193.164062 345.816406 193.730469 L 344.785156 194.761719 L 348.378906 198.355469 C 349.230469 199.207031 350.613281 199.207031 351.464844 198.351562 L 366.925781 182.894531 C 367.777344 182.039062 367.78125 180.65625 366.929688 179.804688 L 363.335938 176.210938 L 362.304688 177.242188 C 361.734375 177.8125 360.8125 177.8125 360.246094 177.246094 C 359.679688 176.679688 359.679688 175.757812 360.25 175.1875 Z M 363.332031 178.269531 L 365.898438 180.835938 C 366.183594 181.121094 366.183594 181.582031 365.898438 181.867188 L 350.4375 197.324219 C 350.15625 197.609375 349.691406 197.609375 349.410156 197.328125 L 346.84375 194.757812 C 347.980469 193.621094 347.980469 191.777344 346.847656 190.644531 C 345.714844 189.511719 343.871094 189.511719 342.734375 190.648438 L 340.164062 188.082031 C 339.882812 187.796875 339.882812 187.335938 340.167969 187.054688 L 355.625 171.59375 C 355.910156 171.308594 356.371094 171.308594 356.65625 171.59375 L 359.222656 174.160156 C 358.085938 175.296875 358.082031 177.144531 359.214844 178.277344 C 360.347656 179.410156 362.195312 179.40625 363.332031 178.269531 Z M 363.332031 178.269531 " fill-opacity="1" fill-rule="nonzero"/></g></g></g><g clip-path="url(#id8)"><g clip-path="url(#id9)"><g clip-path="url(#id10)"><path fill="#545a67" d="M 59.445312 125.144531 L 52.808594 115.105469 C 52.242188 114.253906 51.136719 113.941406 50.207031 114.375 L 42.242188 118.117188 C 41.3125 118.554688 40.847656 119.605469 41.144531 120.585938 L 44.632812 132.101562 C 45.992188 136.359375 50.621094 138.503906 54.886719 137.105469 L 58.4375 144.667969 L 55.328125 146.128906 C 54.464844 146.535156 54.097656 147.554688 54.503906 148.417969 C 54.582031 148.585938 54.789062 148.660156 54.957031 148.582031 L 65.53125 143.613281 C 65.707031 143.53125 65.773438 143.328125 65.695312 143.160156 C 65.292969 142.300781 64.269531 141.929688 63.40625 142.335938 L 60.304688 143.792969 L 56.75 136.230469 C 60.546875 133.851562 61.855469 128.910156 59.445312 125.144531 Z M 51.082031 116.242188 L 54.53125 121.453125 L 44.929688 125.964844 L 43.117188 119.984375 Z M 46.605469 131.503906 L 45.53125 127.957031 L 55.679688 123.191406 L 57.707031 126.261719 C 58.609375 127.664062 58.847656 129.339844 58.371094 130.980469 C 57.878906 132.691406 56.644531 134.125 54.988281 134.902344 C 53.332031 135.679688 51.441406 135.714844 49.804688 135.003906 C 48.242188 134.320312 47.109375 133.066406 46.605469 131.503906 Z M 46.605469 131.503906 " fill-opacity="1" fill-rule="nonzero"/></g></g></g><g clip-path="url(#id11)"><g clip-path="url(#id12)"><g clip-path="url(#id13)"><path fill="#545a67" d="M 151.328125 72.058594 C 151.542969 71.945312 151.6875 71.769531 151.761719 71.535156 C 151.832031 71.300781 151.808594 71.074219 151.695312 70.855469 C 151.578125 70.640625 151.402344 70.496094 151.167969 70.421875 C 150.933594 70.351562 150.707031 70.375 150.492188 70.488281 C 150.273438 70.605469 150.128906 70.78125 150.058594 71.015625 C 149.984375 71.25 150.007812 71.476562 150.125 71.691406 C 150.238281 71.910156 150.414062 72.054688 150.648438 72.125 C 150.882812 72.199219 151.109375 72.175781 151.328125 72.058594 Z M 166.148438 75.265625 C 165.859375 74.722656 165.457031 74.285156 164.941406 73.953125 C 164.425781 73.621094 163.859375 73.4375 163.25 73.398438 C 163.367188 72.015625 162.773438 70.316406 161.488281 69.347656 C 157.257812 66.148438 151.125 65.113281 146.039062 67.816406 C 140.960938 70.527344 138.398438 76.191406 138.683594 81.492188 C 138.773438 83.136719 139.804688 84.671875 140.980469 85.363281 C 140.765625 85.78125 140.636719 86.222656 140.59375 86.6875 C 140.554688 87.15625 140.605469 87.613281 140.746094 88.058594 C 140.890625 88.503906 141.109375 88.90625 141.414062 89.265625 C 141.714844 89.625 142.074219 89.910156 142.488281 90.128906 C 142.742188 90.257812 143.007812 90.359375 143.285156 90.429688 C 143.261719 90.75 143.296875 91.078125 143.460938 91.382812 L 144.296875 92.953125 C 144.519531 93.371094 144.8125 93.726562 145.175781 94.027344 C 145.542969 94.328125 145.949219 94.546875 146.402344 94.683594 C 146.855469 94.824219 147.3125 94.867188 147.785156 94.824219 C 148.253906 94.777344 148.699219 94.644531 149.113281 94.421875 L 166.402344 85.214844 C 166.820312 84.992188 167.179688 84.699219 167.476562 84.335938 C 167.777344 83.96875 167.996094 83.5625 168.132812 83.109375 C 168.273438 82.660156 168.320312 82.199219 168.273438 81.726562 C 168.226562 81.257812 168.09375 80.816406 167.871094 80.398438 L 167.035156 78.824219 C 166.875 78.519531 166.621094 78.308594 166.339844 78.148438 C 166.703125 77.160156 166.640625 76.195312 166.148438 75.265625 Z M 140.460938 81.394531 C 140.195312 76.40625 142.769531 71.582031 146.878906 69.386719 C 150.992188 67.203125 156.4375 67.757812 160.421875 70.765625 C 161.035156 71.226562 161.449219 72.078125 161.492188 72.9375 C 161.492188 72.957031 161.492188 72.972656 161.492188 72.988281 C 161.496094 73.210938 161.441406 73.414062 161.328125 73.605469 C 161.214844 73.796875 161.058594 73.941406 160.863281 74.042969 L 142.769531 83.679688 C 142.46875 83.839844 142.109375 83.882812 141.796875 83.746094 C 141.707031 83.707031 141.628906 83.65625 141.558594 83.59375 C 140.9375 83.046875 140.503906 82.1875 140.460938 81.394531 Z M 166.300781 81.234375 C 166.414062 81.441406 166.480469 81.664062 166.5 81.898438 C 166.523438 82.136719 166.5 82.367188 166.433594 82.589844 C 166.363281 82.816406 166.253906 83.019531 166.105469 83.203125 C 165.953125 83.386719 165.773438 83.53125 165.566406 83.644531 L 148.277344 92.851562 C 148.070312 92.960938 147.847656 93.027344 147.613281 93.050781 C 147.378906 93.074219 147.148438 93.050781 146.921875 92.984375 C 146.695312 92.914062 146.492188 92.804688 146.308594 92.65625 C 146.125 92.503906 145.980469 92.324219 145.867188 92.117188 L 145.03125 90.542969 L 165.464844 79.664062 Z M 163.839844 78.511719 L 144.980469 88.554688 C 144.773438 88.664062 144.550781 88.734375 144.316406 88.753906 C 144.082031 88.777344 143.851562 88.753906 143.625 88.6875 C 143.398438 88.617188 143.195312 88.507812 143.011719 88.359375 C 142.828125 88.207031 142.683594 88.027344 142.570312 87.820312 C 142.460938 87.613281 142.394531 87.390625 142.371094 87.15625 C 142.347656 86.917969 142.371094 86.6875 142.441406 86.464844 C 142.507812 86.238281 142.617188 86.035156 142.769531 85.851562 C 142.917969 85.667969 143.097656 85.523438 143.304688 85.410156 L 151.164062 81.226562 L 157.136719 81.070312 L 160.59375 76.203125 L 162.167969 75.367188 C 162.375 75.253906 162.597656 75.1875 162.832031 75.164062 C 163.066406 75.144531 163.296875 75.164062 163.523438 75.234375 C 163.75 75.304688 163.953125 75.414062 164.136719 75.5625 C 164.316406 75.714844 164.464844 75.894531 164.574219 76.101562 C 164.6875 76.308594 164.753906 76.53125 164.777344 76.765625 C 164.800781 77 164.777344 77.230469 164.707031 77.457031 C 164.636719 77.683594 164.527344 77.886719 164.378906 78.070312 C 164.230469 78.253906 164.050781 78.398438 163.839844 78.511719 Z M 156.929688 73.109375 C 157.148438 72.996094 157.292969 72.820312 157.363281 72.585938 C 157.4375 72.351562 157.414062 72.125 157.296875 71.90625 C 157.183594 71.691406 157.007812 71.546875 156.773438 71.472656 C 156.535156 71.402344 156.3125 71.425781 156.09375 71.539062 C 155.875 71.65625 155.734375 71.832031 155.660156 72.066406 C 155.589844 72.300781 155.609375 72.527344 155.726562 72.742188 C 155.84375 72.960938 156.015625 73.105469 156.253906 73.175781 C 156.488281 73.25 156.714844 73.226562 156.929688 73.109375 Z M 144.355469 79.808594 C 144.574219 79.691406 144.71875 79.515625 144.789062 79.28125 C 144.863281 79.046875 144.839844 78.820312 144.722656 78.601562 C 144.609375 78.386719 144.433594 78.242188 144.199219 78.171875 C 143.964844 78.097656 143.738281 78.121094 143.519531 78.234375 C 143.304688 78.351562 143.160156 78.527344 143.085938 78.761719 C 143.015625 78.996094 143.039062 79.222656 143.152344 79.441406 C 143.269531 79.65625 143.445312 79.800781 143.679688 79.875 C 143.914062 79.945312 144.140625 79.921875 144.355469 79.808594 Z M 146.613281 74.570312 C 146.828125 74.457031 146.972656 74.28125 147.046875 74.046875 C 147.117188 73.808594 147.09375 73.585938 146.980469 73.367188 C 146.863281 73.148438 146.6875 73.007812 146.453125 72.933594 C 146.21875 72.863281 145.992188 72.882812 145.773438 73 C 145.558594 73.117188 145.414062 73.289062 145.34375 73.527344 C 145.269531 73.761719 145.292969 73.988281 145.40625 74.203125 C 145.523438 74.421875 145.699219 74.566406 145.933594 74.636719 C 146.167969 74.710938 146.394531 74.6875 146.613281 74.570312 Z M 146.613281 74.570312 " fill-opacity="1" fill-rule="nonzero"/></g></g></g><g clip-path="url(#id14)"><g clip-path="url(#id15)"><g clip-path="url(#id16)"><path fill="#545a67" d="M 265.367188 28.394531 L 259.5 25.703125 L 261.054688 24.996094 C 261.378906 24.847656 261.585938 24.527344 261.585938 24.171875 C 261.589844 23.8125 261.386719 23.488281 261.066406 23.335938 L 255.28125 20.597656 L 256.746094 19.929688 C 257.070312 19.78125 257.277344 19.453125 257.277344 19.09375 C 257.273438 18.730469 257.058594 18.40625 256.726562 18.261719 L 245.480469 13.347656 C 245.003906 13.144531 244.402344 13.417969 244.246094 13.910156 L 240.585938 25.625 C 240.46875 26.003906 240.558594 26.324219 240.851562 26.585938 C 241.125 26.824219 241.507812 26.882812 241.835938 26.734375 L 243.296875 26.066406 L 241.578125 32.230469 C 241.480469 32.570312 241.59375 32.9375 241.863281 33.171875 C 242.132812 33.402344 242.511719 33.457031 242.832031 33.308594 L 244.386719 32.601562 L 242.578125 38.792969 C 242.480469 39.136719 242.585938 39.507812 242.855469 39.742188 C 243.128906 39.976562 243.507812 40.03125 243.832031 39.882812 L 252.117188 36.105469 L 252.695312 37.375 L 252.589844 40.460938 C 252.566406 41.140625 253.265625 41.609375 253.878906 41.328125 L 259.875 38.59375 C 260.488281 38.3125 260.59375 37.476562 260.066406 37.050781 L 257.664062 35.105469 L 257.085938 33.835938 L 265.367188 30.058594 C 265.691406 29.910156 265.898438 29.585938 265.898438 29.226562 C 265.898438 28.871094 265.691406 28.546875 265.367188 28.394531 Z M 254.460938 39.050781 L 254.53125 37.011719 L 253.773438 35.347656 L 255.429688 34.59375 L 256.1875 36.253906 L 257.773438 37.539062 Z M 244.875 37.402344 L 247.191406 29.316406 L 243.863281 30.835938 L 246.117188 22.78125 L 242.941406 24.230469 L 245.6875 15.441406 L 254.128906 19.125 L 250.953125 20.574219 L 258.515625 24.152344 L 255.1875 25.671875 L 262.808594 29.21875 Z M 244.875 37.402344 " fill-opacity="1" fill-rule="nonzero"/></g></g></g><g clip-path="url(#id17)"><g clip-path="url(#id18)"><g clip-path="url(#id19)"><path fill="#545a67" d="M 143.851562 187.46875 C 142.980469 187.863281 142.59375 188.890625 142.988281 189.761719 C 143.382812 190.632812 144.410156 191.023438 145.28125 190.628906 C 146.152344 190.234375 146.542969 189.207031 146.148438 188.332031 C 145.753906 187.460938 144.726562 187.074219 143.851562 187.46875 Z M 159.648438 180.320312 C 158.777344 180.714844 158.390625 181.746094 158.785156 182.617188 C 159.179688 183.488281 160.207031 183.875 161.078125 183.480469 C 161.953125 183.085938 162.339844 182.058594 161.945312 181.1875 C 161.550781 180.316406 160.523438 179.925781 159.648438 180.320312 Z M 156.019531 183.867188 L 148.910156 187.082031 C 148.691406 187.179688 148.597656 187.4375 148.695312 187.65625 L 149.050781 188.445312 C 149.152344 188.664062 149.40625 188.761719 149.625 188.664062 L 156.734375 185.445312 C 156.953125 185.347656 157.050781 185.089844 156.953125 184.875 L 156.59375 184.082031 C 156.496094 183.863281 156.238281 183.769531 156.019531 183.867188 Z M 159.882812 176.746094 L 157.6875 173.644531 C 156.492188 171.953125 154.25 171.347656 152.363281 172.199219 L 152.203125 172.273438 L 151.488281 170.691406 C 151.09375 169.820312 150.066406 169.433594 149.195312 169.828125 L 142.875 172.6875 C 142.003906 173.082031 141.617188 174.109375 142.011719 174.980469 L 142.722656 176.558594 L 142.5625 176.632812 C 140.675781 177.488281 139.652344 179.570312 140.132812 181.585938 L 141.011719 185.28125 C 139.441406 186.761719 138.886719 189.113281 139.828125 191.191406 L 140.542969 192.769531 C 141.070312 193.9375 142.164062 194.65625 143.351562 194.777344 L 144.265625 196.796875 C 144.660156 197.667969 145.6875 198.054688 146.558594 197.660156 L 148.929688 196.589844 C 149.800781 196.195312 150.191406 195.167969 149.796875 194.296875 L 149.082031 192.714844 L 160.140625 187.714844 L 160.851562 189.292969 C 161.25 190.164062 162.277344 190.550781 163.148438 190.15625 L 165.515625 189.085938 C 166.390625 188.691406 166.777344 187.664062 166.382812 186.792969 L 165.46875 184.773438 C 166.164062 183.800781 166.347656 182.503906 165.820312 181.339844 L 165.105469 179.757812 C 164.164062 177.679688 162.03125 176.542969 159.882812 176.746094 Z M 143.589844 174.265625 L 149.910156 171.40625 L 150.625 172.988281 L 144.304688 175.847656 Z M 141.820312 181.183594 C 141.53125 179.972656 142.144531 178.726562 143.277344 178.210938 L 153.078125 173.78125 C 154.210938 173.269531 155.554688 173.632812 156.269531 174.648438 L 158.09375 177.222656 L 142.550781 184.25 Z M 148.214844 195.007812 L 145.847656 196.082031 L 145.132812 194.5 L 147.5 193.429688 Z M 164.804688 187.507812 L 162.433594 188.578125 L 161.71875 187 L 164.089844 185.925781 Z M 164.238281 182.050781 C 164.632812 182.921875 164.246094 183.953125 163.375 184.347656 L 144.417969 192.921875 C 143.546875 193.316406 142.515625 192.925781 142.121094 192.058594 L 141.40625 190.476562 C 140.621094 188.734375 141.394531 186.675781 143.136719 185.886719 L 158.9375 178.742188 C 160.679688 177.953125 162.734375 178.730469 163.523438 180.472656 Z M 164.238281 182.050781 " fill-opacity="1" fill-rule="nonzero"/></g></g></g><g clip-path="url(#id20)"><g clip-path="url(#id21)"><g clip-path="url(#id22)"><path fill="#545a67" d="M 264.539062 139.804688 L 260.972656 131.320312 C 258.078125 130.757812 255.578125 129.308594 254.222656 126.722656 C 251.792969 122.070312 253.945312 115.808594 257.039062 114.191406 C 258.105469 113.628906 259.417969 114.03125 259.96875 115.074219 L 271.195312 136.519531 C 271.742188 137.5625 271.324219 138.871094 270.253906 139.429688 L 267.546875 140.851562 C 266.441406 141.425781 265.039062 140.988281 264.539062 139.804688 Z M 255.773438 125.90625 C 257.089844 128.421875 259.539062 129.304688 262.203125 129.734375 L 266.152344 139.132812 C 266.234375 139.324219 266.496094 139.390625 266.71875 139.273438 L 269.429688 137.851562 C 269.636719 137.746094 269.738281 137.503906 269.648438 137.332031 L 258.417969 115.886719 C 258.328125 115.714844 258.070312 115.660156 257.863281 115.769531 C 255.707031 116.898438 253.757812 122.050781 255.773438 125.90625 Z M 248.265625 120.90625 C 247.605469 120.027344 246.367188 119.777344 245.164062 120.410156 C 244.585938 120.710938 244.085938 121.1875 243.839844 121.804688 C 243.25 121.667969 242.585938 121.757812 241.941406 122.097656 C 241.296875 122.433594 240.84375 122.929688 240.617188 123.492188 C 239.972656 123.339844 239.292969 123.480469 238.71875 123.785156 C 237.5 124.421875 237.023438 125.582031 237.359375 126.617188 C 237.515625 127.128906 238.804688 131.175781 239.617188 132.730469 C 240.929688 135.238281 243.273438 136.566406 245.910156 136.386719 L 250.800781 147.066406 C 251.308594 148.183594 252.636719 148.65625 253.707031 148.097656 L 256.609375 146.578125 C 257.675781 146.019531 258.046875 144.660156 257.421875 143.601562 L 251.425781 133.5 C 253.070312 131.4375 253.316406 128.75 252.003906 126.242188 C 251.191406 124.691406 248.597656 121.324219 248.265625 120.90625 Z M 249.3125 133.3125 L 255.921875 144.492188 C 256.027344 144.671875 255.96875 144.902344 255.785156 145 L 252.878906 146.519531 C 252.703125 146.613281 252.476562 146.535156 252.386719 146.34375 L 246.960938 134.542969 C 244.683594 135.183594 242.382812 134.242188 241.164062 131.917969 C 240.398438 130.453125 239.027344 126.089844 239.027344 126.089844 C 238.847656 125.5625 240.144531 124.894531 240.460938 125.351562 L 243.621094 131.390625 C 243.960938 131.9375 245.289062 131.253906 245.054688 130.65625 L 242.238281 124.410156 C 242.066406 123.890625 243.339844 123.222656 243.667969 123.660156 L 247.199219 129.53125 C 247.554688 130.0625 248.871094 129.359375 248.621094 128.773438 L 245.460938 122.742188 C 245.261719 122.222656 246.550781 121.535156 246.882812 121.984375 C 246.882812 121.984375 249.6875 125.597656 250.453125 127.0625 C 251.667969 129.367188 251.148438 131.796875 249.3125 133.3125 Z M 249.3125 133.3125 " fill-opacity="1" fill-rule="nonzero"/></g></g></g><g clip-path="url(#id23)"><g clip-path="url(#id24)"><g clip-path="url(#id25)"><path fill="#545a67" d="M 358.597656 65.683594 L 357.890625 66 L 355.945312 64.421875 C 355.71875 64.238281 355.457031 64.128906 355.167969 64.089844 C 354.875 64.050781 354.597656 64.09375 354.328125 64.214844 L 341.917969 69.800781 C 341.648438 69.921875 341.433594 70.105469 341.265625 70.347656 C 341.101562 70.589844 341.011719 70.859375 341 71.152344 L 340.894531 73.652344 L 340.1875 73.972656 C 339.796875 74.148438 339.621094 74.605469 339.796875 74.996094 L 341.066406 77.8125 C 341.238281 78.203125 341.699219 78.375 342.089844 78.199219 L 342.917969 77.828125 L 350.503906 91.503906 C 350.894531 92.207031 351.761719 92.492188 352.5 92.160156 L 364.054688 86.960938 C 364.789062 86.628906 365.152344 85.789062 364.882812 85.03125 L 359.675781 70.28125 L 360.5 69.910156 C 360.890625 69.734375 361.066406 69.277344 360.890625 68.886719 L 359.621094 66.070312 C 359.445312 65.679688 358.988281 65.507812 358.597656 65.683594 Z M 363.417969 85.550781 L 351.863281 90.753906 L 350.359375 88.039062 L 362.386719 82.625 Z M 361.871094 81.160156 L 349.605469 86.683594 L 346.59375 81.257812 L 359.804688 75.3125 Z M 359.285156 73.847656 L 345.84375 79.902344 L 344.335938 77.1875 L 358.253906 70.921875 Z M 359.15625 68.820312 L 342.164062 76.472656 L 341.527344 75.0625 L 342.40625 74.667969 L 342.550781 71.210938 L 354.964844 65.625 L 357.648438 67.804688 L 358.523438 67.410156 Z M 359.15625 68.820312 " fill-opacity="1" fill-rule="nonzero"/></g></g></g></svg>
