<svg xmlns="http://www.w3.org/2000/svg" xmlns:xlink="http://www.w3.org/1999/xlink" width="500" zoomAndPan="magnify" viewBox="0 0 375 374.999991" height="500" preserveAspectRatio="xMidYMid meet" version="1.0"><defs><clipPath id="id1"><path d="M 81 45.640625 L 293.976562 45.640625 L 293.976562 329.140625 L 81 329.140625 Z M 81 45.640625 " clip-rule="nonzero"/></clipPath></defs><rect x="-37.5" width="450" fill="#ffffff" y="-37.499999" height="449.999989" fill-opacity="1"/><rect x="-37.5" width="450" fill="#6b727f" y="-37.499999" height="449.999989" fill-opacity="1"/><rect x="-37.5" width="450" fill="#ffffff" y="-37.499999" height="449.999989" fill-opacity="1"/><rect x="-37.5" width="450" fill="#6b727f" y="-37.499999" height="449.999989" fill-opacity="1"/><g clip-path="url(#id1)"><path fill="#545a67" d="M 187.476562 98.796875 C 158.148438 98.796875 134.289062 122.644531 134.289062 151.953125 C 134.289062 181.265625 158.148438 205.109375 187.476562 205.109375 C 216.804688 205.109375 240.664062 181.265625 240.664062 151.953125 C 240.664062 122.644531 216.804688 98.796875 187.476562 98.796875 Z M 187.476562 187.390625 C 167.925781 187.390625 152.019531 171.496094 152.019531 151.953125 C 152.019531 132.414062 167.925781 116.515625 187.476562 116.515625 C 207.027344 116.515625 222.933594 132.414062 222.933594 151.953125 C 222.933594 171.496094 207.027344 187.390625 187.476562 187.390625 Z M 187.476562 45.640625 C 128.726562 45.640625 81.101562 93.238281 81.101562 151.953125 C 81.101562 194.820312 96.046875 206.789062 176.546875 323.421875 C 181.828125 331.046875 193.125 331.046875 198.410156 323.421875 C 278.910156 206.789062 293.851562 194.820312 293.851562 151.953125 C 293.851562 93.238281 246.226562 45.640625 187.476562 45.640625 Z M 187.476562 308.0625 C 110.304688 196.519531 98.832031 187.664062 98.832031 151.953125 C 98.832031 128.289062 108.054688 106.042969 124.796875 89.308594 C 141.539062 72.574219 163.800781 63.359375 187.476562 63.359375 C 211.15625 63.359375 233.414062 72.574219 250.160156 89.308594 C 266.902344 106.042969 276.121094 128.289062 276.121094 151.953125 C 276.121094 187.664062 264.660156 196.511719 187.476562 308.0625 Z M 187.476562 308.0625 " fill-opacity="1" fill-rule="nonzero"/></g></svg>