<?xml version="1.0" standalone="no"?>
<!DOCTYPE svg PUBLIC "-//W3C//DTD SVG 20010904//EN"
 "http://www.w3.org/TR/2001/REC-SVG-20010904/DTD/svg10.dtd">
<svg version="1.0" xmlns="http://www.w3.org/2000/svg"
 width="400.000000pt" height="400.000000pt" viewBox="0 0 400.000000 400.000000"
 preserveAspectRatio="xMidYMid meet">
<metadata>
Created by potrace 1.11, written by Peter Selinger 2001-2013
</metadata>
<g transform="translate(0.000000,400.000000) scale(0.100000,-0.100000)"
fill="#000000" stroke="none">
<path d="M0 2000 l0 -2000 2000 0 2000 0 0 2000 0 2000 -2000 0 -2000 0 0
-2000z m2233 1165 c183 -24 335 -69 506 -148 l54 -26 51 39 c107 79 125 85
281 85 133 0 143 -1 191 -27 71 -38 154 -116 189 -180 29 -51 30 -58 30 -178
0 -146 -9 -170 -101 -269 l-56 -61 25 -62 c45 -116 52 -162 52 -358 0 -207 -7
-246 -65 -382 -145 -338 -447 -598 -852 -733 -191 -63 -268 -76 -524 -82 -256
-6 -330 0 -511 47 -448 116 -785 372 -953 725 -77 160 -84 199 -84 425 0 226
7 264 85 429 l49 103 -34 57 c-50 83 -59 119 -54 235 3 90 7 107 32 151 41 69
130 153 196 184 50 24 66 26 185 26 146 0 188 -13 271 -80 23 -19 46 -35 51
-35 5 0 42 13 84 29 91 35 259 78 354 90 117 14 424 12 548 -4z"/>
<path d="M1720 3025 c-546 -86 -968 -410 -1092 -840 -33 -115 -33 -325 0 -440
117 -406 496 -716 1010 -825 185 -40 469 -37 680 6 493 100 886 424 994 819
32 119 32 329 0 440 -121 416 -518 734 -1040 831 -124 23 -430 28 -552 9z
m-187 -515 c60 -23 109 -68 131 -122 24 -56 22 -254 -3 -333 -41 -128 -94
-224 -178 -319 -24 -26 -43 -52 -43 -57 0 -6 -19 -19 -42 -30 -24 -11 -56 -27
-73 -37 -39 -21 -165 -29 -208 -11 -102 41 -125 73 -153 209 -14 63 -14 88 -4
156 19 129 45 211 86 272 52 76 133 175 153 186 9 5 25 17 37 28 30 27 162 77
206 77 21 1 61 -8 91 -19z m1044 -8 c73 -26 156 -78 177 -111 5 -8 26 -33 46
-55 62 -70 83 -108 125 -226 37 -106 50 -208 35 -282 -12 -62 -58 -168 -86
-199 -23 -26 -85 -39 -182 -39 -90 0 -91 0 -139 38 -119 95 -240 253 -274 360
-6 20 -15 45 -20 54 -17 34 -28 199 -19 275 13 103 55 157 146 193 67 26 99
25 191 -8z m-396 -620 c36 -40 37 -76 5 -141 -59 -116 -117 -151 -250 -151
-99 0 -145 17 -190 71 -38 45 -76 123 -76 157 0 33 32 79 64 92 11 5 110 8
219 7 l199 -2 29 -33z"/>
<path d="M1251 2123 c-30 -37 -35 -66 -17 -101 18 -35 66 -72 93 -72 10 0 33
15 51 34 35 37 43 87 21 129 -17 32 -28 37 -81 37 -39 0 -50 -5 -67 -27z"/>
<path d="M2518 2106 c-19 -40 -20 -50 -9 -85 9 -31 20 -44 48 -57 34 -17 37
-17 71 2 44 23 76 75 68 108 -3 12 -15 35 -27 49 -18 23 -28 27 -75 27 l-54 0
-22 -44z"/>
</g>
</svg>
