<?xml version="1.0" standalone="no"?>
<!DOCTYPE svg PUBLIC "-//W3C//DTD SVG 20010904//EN"
 "http://www.w3.org/TR/2001/REC-SVG-20010904/DTD/svg10.dtd">
<svg version="1.0" xmlns="http://www.w3.org/2000/svg"
 width="900.000000pt" height="900.000000pt" viewBox="0 0 900.000000 900.000000"
 preserveAspectRatio="xMidYMid meet">
<metadata>
Created by potrace 1.11, written by Peter Selinger 2001-2013
</metadata>
<g transform="translate(0.000000,900.000000) scale(0.100000,-0.100000)"
fill="#000000" stroke="none">
<path d="M0 4500 l0 -4500 4500 0 4500 0 0 4500 0 4500 -4500 0 -4500 0 0
-4500z m2170 1438 c19 -8 43 -24 52 -34 22 -25 812 -1583 878 -1732 29 -64 53
-118 54 -119 1 -2 17 34 35 80 42 103 855 1710 889 1756 45 61 64 64 405 69
l307 4 0 -1461 0 -1461 -295 0 -295 0 2 964 c2 530 2 963 0 961 -1 -1 -178
-342 -391 -756 -285 -553 -399 -765 -428 -795 -54 -56 -111 -74 -238 -74 -88
0 -108 3 -151 25 -28 14 -62 37 -77 53 -14 15 -201 366 -415 780 -214 414
-391 755 -393 757 -2 2 -3 -428 -1 -956 l3 -959 -296 0 -295 0 0 1461 0 1461
308 -4 c246 -4 314 -8 342 -20z m4475 -11 c375 -77 608 -236 736 -502 66 -136
83 -223 83 -425 1 -188 -10 -255 -60 -387 -92 -246 -285 -423 -570 -521 -153
-53 -435 -84 -727 -81 l-152 1 -5 -484 -5 -483 -335 0 -335 0 -3 1453 -2 1453
647 -4 c551 -3 660 -6 728 -20z"/>
<path d="M5955 5439 c-3 -8 -4 -216 -3 -464 l3 -450 215 1 c305 1 389 20 488
109 58 52 105 137 122 222 19 87 8 266 -19 335 -43 112 -160 204 -296 235 -35
8 -151 16 -282 20 -185 5 -223 3 -228 -8z"/>
</g>
</svg>
